<?xml version="1.0" standalone="no"?>
<!DOCTYPE svg PUBLIC "-//W3C//DTD SVG 20010904//EN"
 "http://www.w3.org/TR/2001/REC-SVG-20010904/DTD/svg10.dtd">
<svg version="1.0" xmlns="http://www.w3.org/2000/svg"
 width="638.000000pt" height="638.000000pt" viewBox="0 0 638.000000 638.000000"
 preserveAspectRatio="xMidYMid meet">
<metadata>
Created by potrace 1.14, written by Peter Selinger 2001-2017
</metadata>
<g transform="translate(0.000000,638.000000) scale(0.100000,-0.100000)"
fill="#000000" stroke="none">
<path d="M2978 6375 c-1 -1 -40 -6 -85 -9 -46 -4 -92 -9 -104 -11 -12 -2 -41
-7 -66 -9 -161 -19 -447 -93 -648 -168 -100 -37 -354 -150 -381 -170 -6 -4
-37 -22 -70 -39 -60 -32 -294 -182 -329 -212 -11 -9 -49 -39 -85 -67 -221
-174 -410 -369 -584 -605 -36 -49 -70 -94 -74 -100 -62 -77 -252 -431 -302
-560 -13 -33 -27 -64 -31 -70 -4 -5 -28 -75 -54 -155 -81 -252 -132 -496 -153
-725 -14 -157 -5 -645 12 -674 2 -3 7 -37 11 -76 4 -38 8 -72 10 -75 2 -3 6
-21 9 -40 55 -330 206 -732 391 -1044 59 -101 146 -230 157 -234 4 -2 8 -8 8
-14 0 -18 200 -256 303 -360 94 -95 213 -204 289 -263 77 -60 106 -82 160
-120 35 -24 88 -59 118 -77 30 -18 70 -43 89 -55 52 -35 298 -158 397 -199
133 -54 207 -79 339 -118 149 -43 285 -72 420 -91 22 -3 51 -8 65 -10 136 -26
747 -26 789 -1 3 2 34 7 67 10 34 3 68 8 75 10 8 3 30 7 49 10 50 7 180 35
215 46 17 5 91 28 165 51 410 125 829 362 1155 652 228 203 441 454 586 692
26 44 52 85 56 90 4 6 19 33 33 60 14 28 27 52 30 55 13 12 102 206 143 311
93 234 161 488 193 714 2 17 6 43 9 58 29 174 27 634 -5 842 -5 33 -11 77 -14
97 -22 147 -93 408 -162 598 -76 207 -310 636 -416 765 -10 11 -37 46 -62 78
-133 174 -330 371 -526 527 -172 137 -483 331 -596 372 -19 6 -34 16 -34 20 0
4 -8 8 -18 8 -10 0 -22 4 -27 9 -15 13 -227 95 -335 129 -144 46 -326 90 -435
106 -23 4 -50 8 -61 10 -11 2 -47 7 -79 11 -33 4 -73 9 -90 12 -34 5 -511 13
-517 8z"/>
</g>
</svg>
